<?xml version="1.0" ?><svg id="Layer_1" style="enable-background:new 0 0 512 512;" version="1.1" viewBox="0 0 512 512" xml:space="preserve" xmlns="http://www.w3.org/2000/svg" xmlns:xlink="http://www.w3.org/1999/xlink"><g id="XMLID_588_"><path d="M256,39.9c-14.6,0-26.4,11.8-26.4,26.4c0,14.6,11.8,26.4,26.4,26.4c14.6,0,26.4-11.8,26.4-26.4   C282.4,51.7,270.6,39.9,256,39.9z M256,82.9c-9.2,0-16.6-7.4-16.6-16.6c0-9.2,7.4-16.6,16.6-16.6c9.2,0,16.6,7.4,16.6,16.6   C272.6,75.4,265.2,82.9,256,82.9z" id="XMLID_609_"/><path d="M413,347.9h-16c12.3-10.1,19.6-25.3,19.6-41.5c0-14.8-5.9-28.5-16.5-38.8c-10.6-10.2-24.6-15.5-39.4-15   c-27.6,1.1-50.2,23.5-51.6,51.1c-0.8,17.1,6.5,33.4,19.5,44.1h-16c-19,0-35.1,13.9-37.4,32.4c-0.6,4.6-0.3,9.3,0.8,13.7   c1.3,5.4,6.2,9.2,11.7,9.2H437c6.3,0,11.7-4.5,13-10.6v0c0.9-4.6,1-9.3,0.2-13.9C447.1,360.9,431.5,347.9,413,347.9z M440.4,390.6   c-0.3,1.6-1.8,2.8-3.4,2.8H287.7c-1,0-1.9-0.7-2.2-1.7c-0.8-3.3-1-6.7-0.6-10.1c1.7-13.6,13.7-23.8,27.7-23.8h23.6   c3.3,0,6.2-2.2,7.1-5.4c0.9-3.2-0.4-6.6-3.3-8.3c-13.8-8.4-21.9-23.6-21.1-39.8c1.1-22.5,19.6-40.9,42.2-41.7   c12.1-0.5,23.5,3.9,32.2,12.2c8.7,8.4,13.5,19.6,13.5,31.7c0,15.8-8.6,30.5-22.4,38.3c-2.8,1.6-4.1,4.7-3.3,7.8   c0.8,3.1,3.5,5.2,6.7,5.2H413c13.7,0,25.3,9.5,27.5,22.6C441.1,383.8,441.1,387.2,440.4,390.6z" id="XMLID_644_"/><path d="M480.1,169.3H302.3V63c0-25.5-20.8-46.3-46.3-46.3c-25.5,0-46.3,20.8-46.3,46.3v106.2H31.9   C17.6,169.3,6,180.9,6,195.2v274.2c0,14.3,11.6,25.9,25.9,25.9h448.2c14.3,0,25.9-11.6,25.9-25.9V195.2   C506,180.9,494.4,169.3,480.1,169.3z M219.5,63c0-20.1,16.4-36.5,36.5-36.5c20.1,0,36.5,16.4,36.5,36.5v106.2h-73V63z M496.2,469.4   c0,8.9-7.2,16.1-16.1,16.1H31.9c-8.9,0-16.1-7.2-16.1-16.1V195.2c0-8.9,7.2-16.1,16.1-16.1h448.2c8.9,0,16.1,7.2,16.1,16.1V469.4z" id="XMLID_647_"/><path d="M455.3,200H56.7c-13.3,0-24.1,10.1-24.1,22.6V442c0,12.4,10.8,22.6,24.1,22.6h398.6   c13.3,0,24.1-10.1,24.1-22.6V222.5C479.3,210.1,468.6,200,455.3,200z M468.6,442c0,6.5-6,11.8-13.3,11.8H56.7   c-7.3,0-13.3-5.3-13.3-11.8V222.5c0-6.5,6-11.8,13.3-11.8h398.6c7.3,0,13.3,5.3,13.3,11.8V442z" id="XMLID_651_"/><path d="M250.8,268.6H69.2c-3,0-5.4,2.4-5.4,5.4l0,0c0,3,2.4,5.4,5.4,5.4h181.7c3,0,5.4-2.4,5.4-5.4l0,0   C256.2,271,253.8,268.6,250.8,268.6z" id="XMLID_652_"/><path d="M250.8,304.6H69.2c-3,0-5.4,2.4-5.4,5.4l0,0c0,3,2.4,5.4,5.4,5.4h181.7c3,0,5.4-2.4,5.4-5.4l0,0   C256.2,307,253.8,304.6,250.8,304.6z" id="XMLID_653_"/><path d="M250.8,340.5H69.2c-3,0-5.4,2.4-5.4,5.4l0,0c0,3,2.4,5.4,5.4,5.4h181.7c3,0,5.4-2.4,5.4-5.4l0,0   C256.2,342.9,253.8,340.5,250.8,340.5z" id="XMLID_654_"/><path d="M250.8,376.5H69.2c-3,0-5.4,2.4-5.4,5.4l0,0c0,3,2.4,5.4,5.4,5.4h181.7c3,0,5.4-2.4,5.4-5.4l0,0   C256.2,378.9,253.8,376.5,250.8,376.5z" id="XMLID_655_"/><path d="M69.2,436.2H439c3,0,5.4-2.4,5.4-5.4l0,0c0-3-2.4-5.4-5.4-5.4H69.2c-3,0-5.4,2.4-5.4,5.4l0,0   C63.8,433.8,66.2,436.2,69.2,436.2z" id="XMLID_656_"/></g></svg>