<?xml version="1.0" encoding="utf-8"?>
<!-- Svg Vector Icons : http://www.onlinewebfonts.com/icon -->
<!DOCTYPE svg PUBLIC "-//W3C//DTD SVG 1.1//EN" "http://www.w3.org/Graphics/SVG/1.1/DTD/svg11.dtd">
<svg version="1.1" xmlns="http://www.w3.org/2000/svg" xmlns:xlink="http://www.w3.org/1999/xlink" x="0px" y="0px" viewBox="0 0 1000 1000" enable-background="new 0 0 1000 1000" xml:space="preserve">
<metadata> Svg Vector Icons : http://www.onlinewebfonts.com/icon </metadata>
<g><path d="M851,185.6H148.9C71.7,185.6,10,247.3,10,324.5v351c0,77.2,61.7,138.9,138.9,138.9H851c77.2,0,138.9-61.7,138.9-138.9v-351C993.7,247.3,928.1,185.6,851,185.6L851,185.6z M106.4,683.2c7.7-69.4,57.9-123.4,119.6-146.6c-34.7-19.3-57.9-57.9-57.9-100.3c0-65.6,50.1-115.7,115.7-115.7s115.7,54,115.7,115.7c0,42.4-23.1,81-57.9,100.3c61.7,23.1,111.9,77.1,119.6,146.6H106.4L106.4,683.2z M878,633.1H604.1c-7.7,0-15.4-7.7-15.4-15.4s7.7-15.4,15.4-15.4H878c7.7,0,15.4,7.7,15.4,15.4S885.7,633.1,878,633.1L878,633.1z M619.5,505.8c0-7.7,7.7-15.4,15.4-15.4h204.5c7.7,0,15.4,7.7,15.4,15.4c0,7.7-7.7,15.4-15.4,15.4H634.9C627.2,521.2,619.5,513.5,619.5,505.8L619.5,505.8z M878,409.3H604.1c-7.7,0-15.4-7.7-15.4-15.4c0-7.7,7.7-15.4,15.4-15.4H878c7.7,0,15.4,7.7,15.4,15.4C893.4,401.6,885.7,409.3,878,409.3L878,409.3z"/></g>
</svg>