<?xml version="1.0" encoding="utf-8"?>
<!-- Generator: Adobe Illustrator 16.0.0, SVG Export Plug-In . SVG Version: 6.00 Build 0)  -->
<!DOCTYPE svg PUBLIC "-//W3C//DTD SVG 1.1//EN" "http://www.w3.org/Graphics/SVG/1.1/DTD/svg11.dtd">
<svg version="1.1" id="Layer_1" xmlns="http://www.w3.org/2000/svg" xmlns:xlink="http://www.w3.org/1999/xlink" x="0px" y="0px"
	 width="512px" height="512px" viewBox="0 0 512 512" enable-background="new 0 0 512 512" xml:space="preserve">
<path d="M128,172.75V128C128,57.438,185.422,0,256,0c70.594,0,128,57.438,128,128v44.75c-20.531-9.375-41.969-16.188-64-20.75v-24
	c0-35.313-28.656-64-64-64s-64,28.688-64,64v24C169.984,156.563,148.531,163.375,128,172.75z M416,280.5
	c0,111.688-68.156,204.719-160,231.5C164.156,485.219,96,392.188,96,280.5c0-28.125,4.344-55,12.266-80
	c91.094-54,204.359-54,295.453,0C411.625,225.5,416,252.375,416,280.5z M276.063,312.375C283.188,306.5,288,297.938,288,288
	c0-17.688-14.313-32-32-32s-32,14.313-32,32c0,9.938,4.813,18.5,11.938,24.375L224,384h64L276.063,312.375z"/>
</svg>
