<?xml version="1.0" encoding="utf-8"?>
<svg version="1.1" id="Layer_1" xmlns="http://www.w3.org/2000/svg" xmlns:xlink="http://www.w3.org/1999/xlink" x="0px" y="0px"
	 viewBox="0 0 16.1 16.1" style="enable-background:new 0 0 16.1 16.1;" xml:space="preserve">
<g id="Symbols">
	<g id="Nav_850px" transform="translate(-771.000000, -59.000000)">
		<path id="Search-Icon" class="st0" d="M787.1,74l-4.4-4.4c2.2-2.7,1.8-6.6-0.8-9s-6.5-2.2-9,0.2c-2.5,2.4-2.6,6.4-0.4,9
			s6.2,3,9,0.9l4.4,4.4L787.1,74z M774.1,69.1c-1.6-1.6-1.9-4.2-0.6-6.2c1.3-1.9,3.8-2.7,5.9-1.8c2.2,0.9,3.4,3.2,2.9,5.5
			c-0.5,2.3-2.5,3.9-4.8,3.9C776.3,70.5,775,70,774.1,69.1L774.1,69.1z"/>
	</g>
</g>
</svg>
